<mxfile host="app.diagrams.net" agent="Mozilla/5.0 (Windows NT 10.0; Win64; x64) AppleWebKit/537.36 (KHTML, like Gecko) Chrome/137.0.0.0 Safari/537.36" version="27.1.6">
  <diagram name="Page-1" id="fsZRTf60wMPzDU0krOmH">
    <mxGraphModel dx="2564" dy="878" grid="1" gridSize="10" guides="1" tooltips="1" connect="1" arrows="1" fold="1" page="1" pageScale="1" pageWidth="827" pageHeight="1169" math="0" shadow="0">
      <root>
        <mxCell id="0" />
        <mxCell id="1" parent="0" />
        <mxCell id="WXWS9JPxnDjV0Kgew41W-1" value="&#xa;&lt;span style=&quot;color: rgb(0, 0, 0); font-family: &amp;quot;Recursive Variable&amp;quot;, arial, sans-serif; font-size: 14px; font-style: normal; font-variant-ligatures: normal; font-variant-caps: normal; font-weight: 300; letter-spacing: normal; orphans: 2; text-align: center; text-indent: 0px; text-transform: none; widows: 2; word-spacing: 0px; -webkit-text-stroke-width: 0px; white-space: nowrap; text-decoration-thickness: initial; text-decoration-style: initial; text-decoration-color: initial; float: none; display: inline !important;&quot;&gt;Hotel Reservation System&lt;/span&gt;&#xa;&#xa;" style="rounded=0;whiteSpace=wrap;html=1;labelPosition=center;verticalLabelPosition=bottom;align=center;verticalAlign=top;labelBackgroundColor=#E6E6E6;" vertex="1" parent="1">
          <mxGeometry x="-210" y="240" width="1170" height="160" as="geometry" />
        </mxCell>
        <mxCell id="WXWS9JPxnDjV0Kgew41W-34" style="edgeStyle=orthogonalEdgeStyle;rounded=0;orthogonalLoop=1;jettySize=auto;html=1;exitX=0;exitY=1;exitDx=0;exitDy=0;exitPerimeter=0;entryX=0.5;entryY=0;entryDx=0;entryDy=0;" edge="1" parent="1" source="WXWS9JPxnDjV0Kgew41W-5" target="WXWS9JPxnDjV0Kgew41W-13">
          <mxGeometry relative="1" as="geometry" />
        </mxCell>
        <mxCell id="WXWS9JPxnDjV0Kgew41W-35" style="edgeStyle=orthogonalEdgeStyle;rounded=0;orthogonalLoop=1;jettySize=auto;html=1;exitX=1;exitY=1;exitDx=0;exitDy=0;exitPerimeter=0;" edge="1" parent="1" source="WXWS9JPxnDjV0Kgew41W-5" target="WXWS9JPxnDjV0Kgew41W-14">
          <mxGeometry relative="1" as="geometry" />
        </mxCell>
        <mxCell id="WXWS9JPxnDjV0Kgew41W-36" style="edgeStyle=orthogonalEdgeStyle;rounded=0;orthogonalLoop=1;jettySize=auto;html=1;exitX=1;exitY=0.3333333333333333;exitDx=0;exitDy=0;exitPerimeter=0;" edge="1" parent="1" source="WXWS9JPxnDjV0Kgew41W-5" target="WXWS9JPxnDjV0Kgew41W-15">
          <mxGeometry relative="1" as="geometry" />
        </mxCell>
        <mxCell id="WXWS9JPxnDjV0Kgew41W-37" style="edgeStyle=orthogonalEdgeStyle;rounded=0;orthogonalLoop=1;jettySize=auto;html=1;exitX=0.5;exitY=0.5;exitDx=0;exitDy=0;exitPerimeter=0;entryX=0.5;entryY=0;entryDx=0;entryDy=0;" edge="1" parent="1" source="WXWS9JPxnDjV0Kgew41W-5" target="WXWS9JPxnDjV0Kgew41W-16">
          <mxGeometry relative="1" as="geometry" />
        </mxCell>
        <mxCell id="WXWS9JPxnDjV0Kgew41W-5" value="Guest" style="shape=umlActor;verticalLabelPosition=top;verticalAlign=bottom;html=1;outlineConnect=0;strokeWidth=4;strokeColor=#0000CC;labelPosition=center;align=center;" vertex="1" parent="1">
          <mxGeometry x="-60" y="80" width="30" height="60" as="geometry" />
        </mxCell>
        <mxCell id="WXWS9JPxnDjV0Kgew41W-28" style="edgeStyle=orthogonalEdgeStyle;rounded=0;orthogonalLoop=1;jettySize=auto;html=1;exitX=0;exitY=1;exitDx=0;exitDy=0;exitPerimeter=0;" edge="1" parent="1" source="WXWS9JPxnDjV0Kgew41W-6" target="WXWS9JPxnDjV0Kgew41W-17">
          <mxGeometry relative="1" as="geometry">
            <Array as="points">
              <mxPoint x="290" y="180" />
            </Array>
          </mxGeometry>
        </mxCell>
        <mxCell id="WXWS9JPxnDjV0Kgew41W-33" style="edgeStyle=orthogonalEdgeStyle;rounded=0;orthogonalLoop=1;jettySize=auto;html=1;exitX=1;exitY=1;exitDx=0;exitDy=0;exitPerimeter=0;entryX=1;entryY=0.5;entryDx=0;entryDy=0;" edge="1" parent="1" source="WXWS9JPxnDjV0Kgew41W-6" target="WXWS9JPxnDjV0Kgew41W-18">
          <mxGeometry relative="1" as="geometry">
            <Array as="points">
              <mxPoint x="430" y="180" />
              <mxPoint x="430" y="360" />
            </Array>
          </mxGeometry>
        </mxCell>
        <mxCell id="WXWS9JPxnDjV0Kgew41W-6" value="Hotel Manager" style="shape=umlActor;verticalLabelPosition=top;verticalAlign=bottom;html=1;outlineConnect=0;strokeWidth=4;strokeColor=#FF0000;labelPosition=center;align=center;" vertex="1" parent="1">
          <mxGeometry x="310" y="120" width="30" height="60" as="geometry" />
        </mxCell>
        <mxCell id="WXWS9JPxnDjV0Kgew41W-24" style="edgeStyle=orthogonalEdgeStyle;rounded=0;orthogonalLoop=1;jettySize=auto;html=1;exitX=0;exitY=0.3333333333333333;exitDx=0;exitDy=0;exitPerimeter=0;entryX=0.5;entryY=0;entryDx=0;entryDy=0;" edge="1" parent="1" source="WXWS9JPxnDjV0Kgew41W-7" target="WXWS9JPxnDjV0Kgew41W-22">
          <mxGeometry relative="1" as="geometry" />
        </mxCell>
        <mxCell id="WXWS9JPxnDjV0Kgew41W-25" style="edgeStyle=orthogonalEdgeStyle;rounded=0;orthogonalLoop=1;jettySize=auto;html=1;exitX=0.25;exitY=0.1;exitDx=0;exitDy=0;exitPerimeter=0;" edge="1" parent="1" source="WXWS9JPxnDjV0Kgew41W-7" target="WXWS9JPxnDjV0Kgew41W-21">
          <mxGeometry relative="1" as="geometry" />
        </mxCell>
        <mxCell id="WXWS9JPxnDjV0Kgew41W-26" style="edgeStyle=orthogonalEdgeStyle;rounded=0;orthogonalLoop=1;jettySize=auto;html=1;exitX=0.5;exitY=0.5;exitDx=0;exitDy=0;exitPerimeter=0;" edge="1" parent="1" source="WXWS9JPxnDjV0Kgew41W-7" target="WXWS9JPxnDjV0Kgew41W-19">
          <mxGeometry relative="1" as="geometry" />
        </mxCell>
        <mxCell id="WXWS9JPxnDjV0Kgew41W-27" style="edgeStyle=orthogonalEdgeStyle;rounded=0;orthogonalLoop=1;jettySize=auto;html=1;exitX=0;exitY=1;exitDx=0;exitDy=0;exitPerimeter=0;entryX=0.5;entryY=0;entryDx=0;entryDy=0;" edge="1" parent="1" source="WXWS9JPxnDjV0Kgew41W-7" target="WXWS9JPxnDjV0Kgew41W-20">
          <mxGeometry relative="1" as="geometry">
            <Array as="points">
              <mxPoint x="877" y="340" />
            </Array>
          </mxGeometry>
        </mxCell>
        <mxCell id="WXWS9JPxnDjV0Kgew41W-7" value="Receptionist" style="shape=umlActor;verticalLabelPosition=top;verticalAlign=bottom;html=1;outlineConnect=0;fillColor=#fff2cc;strokeColor=#00CC00;strokeWidth=4;labelPosition=center;align=center;" vertex="1" parent="1">
          <mxGeometry x="1050" y="280" width="30" height="60" as="geometry" />
        </mxCell>
        <mxCell id="WXWS9JPxnDjV0Kgew41W-13" value="Book Room" style="rounded=0;whiteSpace=wrap;html=1;fillColor=#dae8fc;strokeColor=#6c8ebf;" vertex="1" parent="1">
          <mxGeometry x="-190" y="260" width="100" height="20" as="geometry" />
        </mxCell>
        <mxCell id="WXWS9JPxnDjV0Kgew41W-14" value="Modify Booking" style="rounded=0;whiteSpace=wrap;html=1;fillColor=#dae8fc;strokeColor=#6c8ebf;" vertex="1" parent="1">
          <mxGeometry x="-40" y="260" width="100" height="20" as="geometry" />
        </mxCell>
        <mxCell id="WXWS9JPxnDjV0Kgew41W-15" value="Cancel Booking" style="rounded=0;whiteSpace=wrap;html=1;fillColor=#dae8fc;strokeColor=#6c8ebf;" vertex="1" parent="1">
          <mxGeometry x="70" y="260" width="100" height="20" as="geometry" />
        </mxCell>
        <mxCell id="WXWS9JPxnDjV0Kgew41W-16" value="Register Account" style="rounded=0;whiteSpace=wrap;html=1;fillColor=#dae8fc;strokeColor=#6c8ebf;" vertex="1" parent="1">
          <mxGeometry x="-120" y="360" width="100" height="20" as="geometry" />
        </mxCell>
        <mxCell id="WXWS9JPxnDjV0Kgew41W-17" value="Generate Report" style="rounded=0;whiteSpace=wrap;html=1;fillColor=#f8cecc;strokeColor=#b85450;" vertex="1" parent="1">
          <mxGeometry x="240" y="250" width="100" height="40" as="geometry" />
        </mxCell>
        <mxCell id="WXWS9JPxnDjV0Kgew41W-18" value="View Report" style="rounded=0;whiteSpace=wrap;html=1;fillColor=#f8cecc;strokeColor=#b85450;" vertex="1" parent="1">
          <mxGeometry x="310" y="340" width="100" height="40" as="geometry" />
        </mxCell>
        <mxCell id="WXWS9JPxnDjV0Kgew41W-19" value="Check-out Guest" style="rounded=0;whiteSpace=wrap;html=1;fillColor=#d5e8d4;strokeColor=#82b366;" vertex="1" parent="1">
          <mxGeometry x="710" y="360" width="100" height="20" as="geometry" />
        </mxCell>
        <mxCell id="WXWS9JPxnDjV0Kgew41W-20" value="Print Invoice" style="rounded=0;whiteSpace=wrap;html=1;fillColor=#d5e8d4;strokeColor=#82b366;" vertex="1" parent="1">
          <mxGeometry x="827" y="360" width="100" height="20" as="geometry" />
        </mxCell>
        <mxCell id="WXWS9JPxnDjV0Kgew41W-21" value="Process Payment" style="rounded=0;whiteSpace=wrap;html=1;fillColor=#d5e8d4;strokeColor=#82b366;" vertex="1" parent="1">
          <mxGeometry x="590" y="360" width="100" height="20" as="geometry" />
        </mxCell>
        <mxCell id="WXWS9JPxnDjV0Kgew41W-22" value="Check-in Guest" style="rounded=0;whiteSpace=wrap;html=1;fillColor=#d5e8d4;strokeColor=#82b366;" vertex="1" parent="1">
          <mxGeometry x="470" y="360" width="100" height="20" as="geometry" />
        </mxCell>
        <mxCell id="WXWS9JPxnDjV0Kgew41W-31" value="" style="endArrow=classic;html=1;rounded=0;exitX=0.5;exitY=1;exitDx=0;exitDy=0;entryX=0;entryY=0.5;entryDx=0;entryDy=0;dashed=1;" edge="1" parent="1" source="WXWS9JPxnDjV0Kgew41W-17" target="WXWS9JPxnDjV0Kgew41W-18">
          <mxGeometry relative="1" as="geometry">
            <mxPoint x="550" y="250" as="sourcePoint" />
            <mxPoint x="650" y="250" as="targetPoint" />
          </mxGeometry>
        </mxCell>
        <mxCell id="WXWS9JPxnDjV0Kgew41W-32" value="Include" style="edgeLabel;resizable=0;html=1;;align=center;verticalAlign=middle;labelBackgroundColor=#E6E6E6;" connectable="0" vertex="1" parent="WXWS9JPxnDjV0Kgew41W-31">
          <mxGeometry relative="1" as="geometry" />
        </mxCell>
        <mxCell id="WXWS9JPxnDjV0Kgew41W-38" value="" style="endArrow=classic;html=1;rounded=0;entryX=0;entryY=0.5;entryDx=0;entryDy=0;exitX=0.5;exitY=1;exitDx=0;exitDy=0;dashed=1;" edge="1" parent="1" source="WXWS9JPxnDjV0Kgew41W-13" target="WXWS9JPxnDjV0Kgew41W-16">
          <mxGeometry relative="1" as="geometry">
            <mxPoint x="-170" y="310" as="sourcePoint" />
            <mxPoint x="-70" y="310" as="targetPoint" />
          </mxGeometry>
        </mxCell>
        <mxCell id="WXWS9JPxnDjV0Kgew41W-39" value="Include" style="edgeLabel;resizable=0;html=1;;align=center;verticalAlign=middle;labelBackgroundColor=#E6E6E6;" connectable="0" vertex="1" parent="WXWS9JPxnDjV0Kgew41W-38">
          <mxGeometry relative="1" as="geometry" />
        </mxCell>
      </root>
    </mxGraphModel>
  </diagram>
</mxfile>
